<svg width="441" height="441" viewBox="0 0 441 441" fill="none" xmlns="http://www.w3.org/2000/svg">
<path d="M230.398 174.019L253.398 161.519C270.943 194.064 276.128 219.584 264.398 254.019C254.004 284.534 240.175 299.628 209.898 316.019C172.037 330.683 150.188 331.621 113.898 316.019C86.2938 300.135 74.2122 288.329 62.3982 262.019C51.5316 228.676 50.5362 209.892 63.3982 176.019C76.9899 150.946 87.3855 138.521 116.398 122.519C145.033 110.543 162.174 109.551 194.398 116.519L189.398 142.019C159.569 133.999 143.708 137.157 116.398 151.519C106.322 158.855 101.242 164.379 92.8982 176.019C76.2554 210.328 75.5298 229.267 90.8982 262.019C96.8141 272.549 103.435 277.769 113.738 285.892L113.898 286.019C129.604 296.511 139.716 300.108 160.898 301.019C181.343 300.24 191.911 297.132 208.898 286.019C222.831 274.182 228.697 267.175 235.898 254.019C246.866 224.25 246.01 206.863 230.398 174.019Z" fill="#2D334B"/>
<path d="M212.398 267.019L188.898 278.519C179.68 259.887 176.387 249.615 172.898 231.519C171.382 203.543 174.186 190.035 185.398 169.019C200.104 144.971 210.38 134.546 233.398 123.019C250.79 115.287 262.479 111.705 281.898 112.019C301.266 112.332 310.967 116.431 329.898 124.519C346.978 132.917 354.863 140.385 366.898 157.019C377.64 173.921 383.251 184.081 386.398 203.519C390.172 226.829 386.831 240.331 378.898 263.519C369.688 281.502 361.928 290.192 345.898 304.519C333.096 314.544 324.41 319.058 305.398 324.519C281.543 329.562 268.656 329.025 246.398 323.019L251.898 296.519C273.304 301.457 285.039 301.663 305.398 296.519C321.304 290.285 329.241 285.584 340.398 273.519C352.138 258.358 356.694 249.153 359.898 231.019C361.422 210.996 359.931 200.544 352.398 183.519C343.02 167.639 335.948 160.268 319.898 150.019C304.499 142.209 295.224 139.71 277.398 139.019C258.917 140.177 249.182 144.073 232.398 154.019C216.33 165.277 209.845 174.949 201.898 197.019C198.24 208.87 197.987 216.601 199.398 231.519C201.84 246.274 204.73 254.028 212.398 267.019Z" fill="#2D334B"/>
<path d="M113.898 286.019C129.604 296.511 139.716 300.108 160.898 301.019C181.343 300.241 191.911 297.132 208.898 286.019C222.831 274.182 228.697 267.175 235.898 254.019C246.866 224.25 246.01 206.863 230.398 174.019L253.398 161.519C270.943 194.064 276.128 219.584 264.398 254.019C254.004 284.534 240.175 299.628 209.898 316.019C172.037 330.683 150.188 331.621 113.898 316.019C86.2938 300.135 74.2122 288.329 62.3982 262.019C51.5316 228.676 50.5362 209.892 63.3982 176.019C76.9899 150.946 87.3855 138.521 116.398 122.519C145.033 110.543 162.174 109.551 194.398 116.519L189.398 142.019C159.569 133.999 143.708 137.157 116.398 151.519C106.322 158.855 101.242 164.379 92.8982 176.019C76.2554 210.328 75.5298 229.267 90.8982 262.019C96.8141 272.549 103.435 277.769 113.738 285.892M113.898 286.019L113.738 285.892M113.898 286.019C113.845 285.977 113.791 285.935 113.738 285.892M212.398 267.019L188.898 278.519C179.68 259.887 176.387 249.615 172.898 231.519C171.382 203.543 174.186 190.035 185.398 169.019C200.104 144.971 210.38 134.546 233.398 123.019C250.79 115.287 262.479 111.705 281.898 112.019C301.266 112.332 310.967 116.431 329.898 124.519C346.978 132.917 354.863 140.385 366.898 157.019C377.64 173.921 383.251 184.081 386.398 203.519C390.172 226.829 386.831 240.331 378.898 263.519C369.688 281.502 361.928 290.192 345.898 304.519C333.096 314.544 324.41 319.058 305.398 324.519C281.543 329.562 268.655 329.025 246.398 323.019L251.898 296.519C273.304 301.457 285.039 301.663 305.398 296.519C321.304 290.285 329.241 285.584 340.398 273.519C352.138 258.358 356.694 249.153 359.898 231.019C361.422 210.996 359.931 200.544 352.398 183.519C343.02 167.639 335.948 160.268 319.898 150.019C304.499 142.209 295.224 139.71 277.398 139.019C258.917 140.177 249.182 144.073 232.398 154.019C216.33 165.277 209.845 174.949 201.898 197.019C198.24 208.87 197.987 216.601 199.398 231.519C201.84 246.274 204.73 254.028 212.398 267.019Z" stroke="#2D334B"/>
</svg>
