<svg width="555" height="513" viewBox="0 0 555 513" fill="none" xmlns="http://www.w3.org/2000/svg">
<g clip-path="url(#clip0_153_9)">
<path d="M397.75 0H106.953V511.627H397.75V0Z" fill="#444444"/>
<path opacity="0.529" d="M231.828 65.4135H151.469V240.044H231.828V65.4135Z" fill="#1E1E1E"/>
<path opacity="0.529" d="M354.969 65.4135H273.453V240.044H354.969V65.4135Z" fill="#1E1E1E"/>
<path opacity="0.529" d="M231.828 270.415H151.469V445.045H231.828V270.415Z" fill="#1E1E1E"/>
<path opacity="0.529" d="M354.969 270.415H273.453V445.045H354.969V270.415Z" fill="#1E1E1E"/>
<path d="M385.102 195.297L399.671 208.597L407.36 200.004L392.791 186.705C392.695 185.094 392.283 183.519 391.578 182.071C390.873 180.623 389.891 179.331 388.687 178.271C384.145 174.124 377.71 173.841 374.314 177.638C370.917 181.435 371.845 187.874 376.386 192.02C377.552 193.124 378.923 193.982 380.42 194.544C381.917 195.107 383.51 195.363 385.106 195.298L385.102 195.297Z" fill="white"/>
<path d="M447.956 228.843L397.8 185.256L384.775 200.466L442.068 257.149" fill="#1F6FFE"/>
<path d="M461.549 254.291L468.823 283.33L418.598 282.706L424.345 256.174L461.549 254.291Z" fill="white"/>
<path d="M470.84 353.502L481.744 401.697L501.815 498.193L492.513 500.072L428.584 356.256L470.84 353.502Z" fill="white"/>
<path d="M449.844 364.479L429.702 409.537L400.122 500.073L387.721 496.941L414.531 340.877L449.844 364.479Z" fill="white"/>
<path d="M466.001 272.623C466.001 272.623 488.425 334.205 484.336 402.232C484.336 402.232 451.277 441.273 398.168 405.133L420.029 269.082L466.001 272.625L466.001 272.623Z" fill="#090814"/>
<path d="M503.367 509.7C503.84 509.359 504.237 508.922 504.531 508.417C504.826 507.911 505.013 507.349 505.079 506.766C505.158 505.55 504.562 504.246 503.311 502.888C503.281 502.498 502.893 497.66 502.027 496.793C502.1 496.534 502.541 494.817 501.818 493.702C501.634 493.434 501.391 493.212 501.108 493.054C500.825 492.897 500.51 492.807 500.187 492.793L500.155 492.789L500.139 492.818C500.118 492.856 498.012 496.599 494.843 496.927C493.026 497.115 491.208 496.159 489.437 494.085C489.371 493.931 488.873 491.405 488.55 489.732L488.537 489.665L471.273 498.948L461.181 501.807C460.602 501.976 460.087 502.318 459.704 502.789C459.321 503.259 459.088 503.835 459.035 504.441C458.982 505.048 459.112 505.656 459.408 506.187C459.703 506.718 460.151 507.145 460.692 507.414L465.583 509.819C467.637 510.827 469.89 511.352 472.173 511.355H498.709C500.404 511.364 502.049 510.781 503.367 509.705L503.367 509.7Z" fill="#090814"/>
<path d="M404.775 509.7C405.248 509.359 405.644 508.922 405.939 508.417C406.234 507.911 406.42 507.349 406.486 506.766C406.565 505.55 405.97 504.246 404.719 502.888C404.689 502.498 404.3 497.66 403.435 496.793C403.507 496.534 403.948 494.817 403.226 493.702C403.042 493.434 402.799 493.212 402.516 493.054C402.233 492.897 401.918 492.807 401.595 492.793L401.562 492.789L401.547 492.818C401.526 492.856 399.419 496.599 396.251 496.927C394.434 497.115 392.615 496.159 390.844 494.085C390.779 493.931 390.28 491.405 389.958 489.732L389.944 489.665L372.68 498.948L362.589 501.807C362.01 501.976 361.495 502.318 361.112 502.789C360.729 503.259 360.496 503.835 360.443 504.441C360.39 505.048 360.52 505.656 360.816 506.187C361.112 506.718 361.559 507.145 362.1 507.414L366.992 509.819C369.046 510.827 371.299 511.352 373.582 511.355H400.118C401.812 511.364 403.458 510.781 404.776 509.705L404.775 509.7Z" fill="#090814"/>
<path d="M454.332 164.18C454.331 160.397 453.292 156.689 451.331 153.466C449.37 150.244 446.564 147.633 443.223 145.925C439.882 144.216 436.138 143.477 432.406 143.788C428.674 144.099 425.101 145.449 422.083 147.688C419.065 149.927 416.72 152.967 415.309 156.471C413.897 159.975 413.475 163.805 414.088 167.537C414.701 171.269 416.326 174.756 418.783 177.611C421.239 180.466 424.43 182.577 428.003 183.711L431.919 209.859L451.885 193.05C449.162 189.432 446.933 185.46 445.256 181.243C448.048 179.378 450.338 176.844 451.922 173.866C453.506 170.889 454.334 167.561 454.333 164.18H454.332Z" fill="white"/>
<path d="M453.785 184.384L429.924 199.793L418.911 219.442C415.722 225.132 414.645 231.784 415.874 238.203L420.934 264.65H473.692L465.356 209.473C464.292 202.431 461.637 195.73 457.596 189.892L453.785 184.384Z" fill="#1F6FFE"/>
<path d="M460.837 191.071C460.837 191.071 459.891 198.319 451.125 198.558L433.345 199.039C433.345 199.039 448.377 162.088 442.195 166.25C436.014 170.413 419.536 152.961 419.536 152.961L414.674 162.173C414.674 162.173 403.054 157.924 415.932 147.514C415.932 147.514 431.294 135.516 447.603 142.72C463.912 149.925 460.838 191.067 460.838 191.067L460.837 191.071Z" fill="#090814"/>
<path d="M449.704 322.371L450.13 302.537L438.667 302.286L438.24 322.12C437.098 323.247 436.189 324.593 435.566 326.079C434.944 327.565 434.62 329.162 434.614 330.775C434.483 336.959 438.479 342.06 443.545 342.171C448.61 342.282 452.825 337.36 452.957 331.178C453.021 329.565 452.766 327.956 452.207 326.444C451.648 324.932 450.797 323.547 449.704 322.371Z" fill="white"/>
<path d="M433.877 223.101V319.235H453.785L459.668 223.91" fill="#1F6FFE"/>
<path d="M376.938 270.415C382.365 270.415 386.766 266.231 386.766 261.07C386.766 255.909 382.365 251.725 376.938 251.725C371.51 251.725 367.109 255.909 367.109 261.07C367.109 266.231 371.51 270.415 376.938 270.415Z" fill="#090814"/>
<path d="M65.2539 467.288C65.2539 467.288 77.2835 450.576 89.6473 452.102C89.6473 452.107 76.4487 466.276 65.2539 467.288Z" fill="#1F6FFE"/>
<path d="M56.87 472.546C56.87 472.546 42.9146 457.442 46.7343 445.472C46.7528 445.466 58.0326 461.25 56.87 472.546Z" fill="#1F6FFE"/>
<path d="M62.7645 473.29C62.7645 473.29 55.8803 458.36 60.6696 450.26C60.6874 450.259 65.1921 465.273 62.7645 473.29Z" fill="#090814"/>
<path d="M89.2096 469.524L87.2191 501.78L86.8722 507.266C86.8043 508.374 86.3209 509.413 85.5204 510.173C84.72 510.933 83.6628 511.355 82.5646 511.355H44.095C42.9967 511.355 41.9396 510.933 41.1391 510.173C40.3387 509.413 39.8552 508.374 39.7874 507.266L39.3185 499.698L37.4512 469.524H89.2096Z" fill="#F2F2F2"/>
<path d="M88.3288 464.732H38.3262C36.8894 464.732 35.7246 465.909 35.7246 467.36V472.999C35.7246 474.45 36.8894 475.627 38.3262 475.627H88.3288C89.7656 475.627 90.9303 474.45 90.9303 472.999V467.36C90.9303 465.909 89.7656 464.732 88.3288 464.732Z" fill="#1F6FFE"/>
<path d="M87.2128 501.779L86.8659 507.265C86.798 508.373 86.3146 509.412 85.5141 510.172C84.7137 510.932 83.6565 511.354 82.5583 511.354H44.0968C42.9985 511.354 41.9414 510.932 41.1409 510.172C40.3405 509.412 39.857 508.373 39.7892 507.265L39.3203 499.697C43.4608 496.357 49.9249 493.628 59.0141 496.539C71.7098 500.606 79.5121 501.974 87.2128 501.779Z" fill="#2D334B"/>
<path d="M0 512.176C0 512.632 0.493719 512.999 1.11 512.999H553.89C554.51 512.999 555 512.633 555 512.176C555 511.719 554.506 511.352 553.89 511.352H1.11C0.493719 511.353 0 511.72 0 512.176Z" fill="#2D334B"/>
</g>
<defs>
<clipPath id="clip0_153_9">
<rect width="555" height="513" fill="white"/>
</clipPath>
</defs>
</svg>
