<svg width="70" height="70" viewBox="0 0 70 70" fill="none" xmlns="http://www.w3.org/2000/svg">
<path d="M10.209 53.9583C10.209 42.7243 10.209 16.0416 10.209 16.0416C10.209 11.2091 14.1265 7.29163 18.959 7.29163H51.0423V45.2083C51.0423 45.2083 26.5899 45.2083 18.959 45.2083C14.1465 45.2083 10.209 49.1228 10.209 53.9583Z" stroke="#002F88" stroke-width="5" stroke-linejoin="round"/>
<path d="M51.0423 45.2084C51.0423 45.2084 20.6415 45.2084 18.959 45.2084C14.1265 45.2084 10.209 49.1259 10.209 53.9584C10.209 58.7909 14.1265 62.7084 18.959 62.7084C22.1806 62.7084 37.7362 62.7084 59.7923 62.7084V10.2084" stroke="#002F88" stroke-width="5" stroke-linecap="round" stroke-linejoin="round"/>
<path d="M20.416 53.9584H49.5827" stroke="#002F88" stroke-width="5" stroke-linecap="round" stroke-linejoin="round"/>
</svg>
