<svg xmlns="http://www.w3.org/2000/svg" width="250" height="140" viewBox="0 0 335 217" fill="none">
  <path d="M176.898 62.519L199.898 50.019C217.443 82.5638 222.628 108.084 210.898 142.519C200.504 173.034 186.675 188.128 156.398 204.519C118.537 219.183 96.6883 220.121 60.3982 204.519C32.7938 188.635 20.7122 176.829 8.89819 150.519C-1.96836 117.176 -2.96377 98.3917 9.8982 64.519C23.4899 39.4461 33.8855 27.0211 62.8982 11.019C91.5331 -0.956722 108.674 -1.94911 140.898 5.019L135.898 30.519C106.069 22.4985 90.208 25.6574 62.8982 40.019C52.8221 47.355 47.742 52.8793 39.3982 64.519C22.7554 98.8282 22.0298 117.767 37.3982 150.519C43.3141 161.049 49.9347 166.269 60.2376 174.392L60.3982 174.519C76.1043 185.011 86.2159 188.608 107.398 189.519C127.843 188.74 138.411 185.632 155.398 174.519C169.331 162.682 175.197 155.675 182.398 142.519C193.366 112.75 192.51 95.3625 176.898 62.519Z" fill="#2D334B"/>
  <path d="M158.898 155.519L135.398 167.019C126.18 148.387 122.887 138.115 119.398 120.019C117.882 92.0428 120.686 78.5355 131.898 57.519C146.604 33.4708 156.88 23.0461 179.898 11.519C197.29 3.78747 208.979 0.204677 228.398 0.518997C247.766 0.832489 257.467 4.93079 276.398 13.019C293.478 21.4165 301.363 28.8848 313.398 45.519C324.14 62.4206 329.751 72.5807 332.898 92.019C336.672 115.329 333.331 128.831 325.398 152.019C316.188 170.002 308.428 178.692 292.398 193.019C279.596 203.044 270.91 207.558 251.898 213.019C228.043 218.062 215.156 217.525 192.898 211.519L198.398 185.019C219.804 189.957 231.539 190.163 251.898 185.019C267.804 178.785 275.741 174.084 286.898 162.019C298.638 146.858 303.194 137.653 306.398 119.519C307.922 99.4959 306.431 89.0438 298.898 72.019C289.52 56.1392 282.448 48.7676 266.398 38.519C250.999 30.7088 241.724 28.2098 223.898 27.519C205.417 28.677 195.682 32.5729 178.898 42.519C162.83 53.7775 156.345 63.449 148.398 85.519C144.74 97.3696 144.487 105.101 145.898 120.019C148.34 134.774 151.23 142.528 158.898 155.519Z" fill="#2D334B"/>
  <path d="M60.3982 174.519C76.1043 185.011 86.2159 188.608 107.398 189.519C127.843 188.741 138.411 185.632 155.398 174.519C169.331 162.682 175.197 155.675 182.398 142.519C193.366 112.75 192.51 95.3625 176.898 62.519L199.898 50.019C217.443 82.5638 222.628 108.084 210.898 142.519C200.504 173.034 186.675 188.128 156.398 204.519C118.537 219.183 96.6883 220.121 60.3982 204.519C32.7938 188.635 20.7122 176.829 8.89819 150.519C-1.96836 117.176 -2.96377 98.3917 9.8982 64.519C23.4899 39.4461 33.8855 27.0211 62.8982 11.019C91.5331 -0.956722 108.674 -1.94911 140.898 5.019L135.898 30.519C106.069 22.4985 90.208 25.6574 62.8982 40.019C52.8221 47.355 47.742 52.8793 39.3982 64.519C22.7554 98.8282 22.0298 117.767 37.3982 150.519C43.3141 161.049 49.9347 166.269 60.2376 174.392M60.3982 174.519L60.2376 174.392M60.3982 174.519C60.3446 174.477 60.291 174.435 60.2376 174.392M158.898 155.519L135.398 167.019C126.18 148.387 122.887 138.115 119.398 120.019C117.882 92.0428 120.686 78.5355 131.898 57.519C146.604 33.4708 156.88 23.0461 179.898 11.519C197.29 3.78747 208.979 0.204677 228.398 0.518997C247.766 0.832489 257.467 4.93079 276.398 13.019C293.478 21.4165 301.363 28.8848 313.398 45.519C324.14 62.4206 329.751 72.5807 332.898 92.019C336.672 115.329 333.331 128.831 325.398 152.019C316.188 170.002 308.428 178.692 292.398 193.019C279.596 203.044 270.91 207.558 251.898 213.019C228.043 218.062 215.155 217.525 192.898 211.519L198.398 185.019C219.804 189.957 231.539 190.163 251.898 185.019C267.804 178.785 275.741 174.084 286.898 162.019C298.638 146.858 303.194 137.653 306.398 119.519C307.922 99.4959 306.431 89.0438 298.898 72.019C289.52 56.1392 282.448 48.7676 266.398 38.519C250.999 30.7088 241.724 28.2098 223.898 27.519C205.417 28.677 195.682 32.5729 178.898 42.519C162.83 53.7775 156.345 63.449 148.398 85.519C144.74 97.3696 144.487 105.101 145.898 120.019C148.34 134.774 151.23 142.528 158.898 155.519Z" stroke="#2D334B"/>
</svg>